<mxfile host="Electron" agent="Mozilla/5.0 (Windows NT 10.0; Win64; x64) AppleWebKit/537.36 (KHTML, like Gecko) draw.io/25.0.2 Chrome/128.0.6613.186 Electron/32.2.5 Safari/537.36" version="25.0.2">
  <diagram name="Page-1" id="2dbHZs60MgRJYXGFf2Fs">
    <mxGraphModel dx="667" dy="397" grid="1" gridSize="10" guides="1" tooltips="1" connect="1" arrows="1" fold="1" page="1" pageScale="1" pageWidth="827" pageHeight="1169" math="0" shadow="0">
      <root>
        <mxCell id="0" />
        <mxCell id="1" parent="0" />
        <mxCell id="PCGd_DvdktvaPrUJOzKs-1" value="" style="shape=hexagon;perimeter=hexagonPerimeter2;whiteSpace=wrap;html=1;fixedSize=1;rotation=90;size=7.180000000000064;strokeColor=#99FF99;" parent="1" vertex="1">
          <mxGeometry x="340.99999999999994" y="215.22000000000003" width="38.59" height="10" as="geometry" />
        </mxCell>
        <mxCell id="PCGd_DvdktvaPrUJOzKs-2" value="" style="shape=waypoint;sketch=0;fillStyle=solid;size=6;pointerEvents=1;points=[];fillColor=none;resizable=0;rotatable=0;perimeter=centerPerimeter;snapToPoint=1;" parent="1" vertex="1">
          <mxGeometry x="350.29999999999995" y="202" width="20" height="20" as="geometry" />
        </mxCell>
        <mxCell id="PCGd_DvdktvaPrUJOzKs-3" value="" style="shape=waypoint;sketch=0;fillStyle=solid;size=6;pointerEvents=1;points=[];fillColor=none;resizable=0;rotatable=0;perimeter=centerPerimeter;snapToPoint=1;" parent="1" vertex="1">
          <mxGeometry x="350.29999999999995" y="210.22000000000003" width="20" height="20" as="geometry" />
        </mxCell>
        <mxCell id="PCGd_DvdktvaPrUJOzKs-4" value="" style="shape=waypoint;sketch=0;fillStyle=solid;size=6;pointerEvents=1;points=[];fillColor=none;resizable=0;rotatable=0;perimeter=centerPerimeter;snapToPoint=1;" parent="1" vertex="1">
          <mxGeometry x="350.29999999999995" y="219" width="20" height="20" as="geometry" />
        </mxCell>
        <mxCell id="PCGd_DvdktvaPrUJOzKs-5" value="" style="shape=hexagon;perimeter=hexagonPerimeter2;whiteSpace=wrap;html=1;fixedSize=1;rotation=90;size=7.180000000000064;strokeColor=#99FF99;" parent="1" vertex="1">
          <mxGeometry x="360" y="210.07" width="29.06" height="10" as="geometry" />
        </mxCell>
        <mxCell id="PCGd_DvdktvaPrUJOzKs-6" value="" style="shape=waypoint;sketch=0;fillStyle=solid;size=6;pointerEvents=1;points=[];fillColor=none;resizable=0;rotatable=0;perimeter=centerPerimeter;snapToPoint=1;" parent="1" vertex="1">
          <mxGeometry x="364.53" y="202" width="20" height="20" as="geometry" />
        </mxCell>
        <mxCell id="PCGd_DvdktvaPrUJOzKs-7" value="" style="shape=waypoint;sketch=0;fillStyle=solid;size=6;pointerEvents=1;points=[];fillColor=none;resizable=0;rotatable=0;perimeter=centerPerimeter;snapToPoint=1;" parent="1" vertex="1">
          <mxGeometry x="364.53" y="210.22000000000003" width="20" height="20" as="geometry" />
        </mxCell>
        <mxCell id="PCGd_DvdktvaPrUJOzKs-15" value="" style="shape=hexagon;perimeter=hexagonPerimeter2;whiteSpace=wrap;html=1;fixedSize=1;rotation=90;size=7.180000000000064;strokeColor=#99FF99;" parent="1" vertex="1">
          <mxGeometry x="325.93999999999994" y="215.22000000000003" width="38.59" height="10" as="geometry" />
        </mxCell>
        <mxCell id="PCGd_DvdktvaPrUJOzKs-16" value="" style="shape=waypoint;sketch=0;fillStyle=solid;size=6;pointerEvents=1;points=[];fillColor=none;resizable=0;rotatable=0;perimeter=centerPerimeter;snapToPoint=1;" parent="1" vertex="1">
          <mxGeometry x="335.23999999999995" y="202" width="20" height="20" as="geometry" />
        </mxCell>
        <mxCell id="PCGd_DvdktvaPrUJOzKs-17" value="" style="shape=waypoint;sketch=0;fillStyle=solid;size=6;pointerEvents=1;points=[];fillColor=none;resizable=0;rotatable=0;perimeter=centerPerimeter;snapToPoint=1;" parent="1" vertex="1">
          <mxGeometry x="335.23999999999995" y="210.22000000000003" width="20" height="20" as="geometry" />
        </mxCell>
        <mxCell id="PCGd_DvdktvaPrUJOzKs-18" value="" style="shape=waypoint;sketch=0;fillStyle=solid;size=6;pointerEvents=1;points=[];fillColor=none;resizable=0;rotatable=0;perimeter=centerPerimeter;snapToPoint=1;" parent="1" vertex="1">
          <mxGeometry x="335.23999999999995" y="219" width="20" height="20" as="geometry" />
        </mxCell>
        <mxCell id="PCGd_DvdktvaPrUJOzKs-24" value="" style="shape=hexagon;perimeter=hexagonPerimeter2;whiteSpace=wrap;html=1;fixedSize=1;rotation=90;size=7.180000000000064;strokeColor=#99FF99;" parent="1" vertex="1">
          <mxGeometry x="311.65" y="214.94000000000003" width="38.59" height="10" as="geometry" />
        </mxCell>
        <mxCell id="PCGd_DvdktvaPrUJOzKs-25" value="" style="shape=waypoint;sketch=0;fillStyle=solid;size=6;pointerEvents=1;points=[];fillColor=none;resizable=0;rotatable=0;perimeter=centerPerimeter;snapToPoint=1;" parent="1" vertex="1">
          <mxGeometry x="320.95" y="201.72" width="20" height="20" as="geometry" />
        </mxCell>
        <mxCell id="PCGd_DvdktvaPrUJOzKs-26" value="" style="shape=waypoint;sketch=0;fillStyle=solid;size=6;pointerEvents=1;points=[];fillColor=none;resizable=0;rotatable=0;perimeter=centerPerimeter;snapToPoint=1;" parent="1" vertex="1">
          <mxGeometry x="320.95" y="209.94000000000003" width="20" height="20" as="geometry" />
        </mxCell>
        <mxCell id="PCGd_DvdktvaPrUJOzKs-27" value="" style="shape=waypoint;sketch=0;fillStyle=solid;size=6;pointerEvents=1;points=[];fillColor=none;resizable=0;rotatable=0;perimeter=centerPerimeter;snapToPoint=1;" parent="1" vertex="1">
          <mxGeometry x="320.95" y="218.72" width="20" height="20" as="geometry" />
        </mxCell>
        <mxCell id="PCGd_DvdktvaPrUJOzKs-29" value="" style="shape=hexagon;perimeter=hexagonPerimeter2;whiteSpace=wrap;html=1;fixedSize=1;rotation=90;size=7.180000000000064;strokeColor=#99FF99;" parent="1" vertex="1">
          <mxGeometry x="296.59" y="214.94000000000003" width="38.59" height="10" as="geometry" />
        </mxCell>
        <mxCell id="PCGd_DvdktvaPrUJOzKs-30" value="" style="shape=waypoint;sketch=0;fillStyle=solid;size=6;pointerEvents=1;points=[];fillColor=none;resizable=0;rotatable=0;perimeter=centerPerimeter;snapToPoint=1;" parent="1" vertex="1">
          <mxGeometry x="305.89" y="201.72" width="20" height="20" as="geometry" />
        </mxCell>
        <mxCell id="PCGd_DvdktvaPrUJOzKs-31" value="" style="shape=waypoint;sketch=0;fillStyle=solid;size=6;pointerEvents=1;points=[];fillColor=none;resizable=0;rotatable=0;perimeter=centerPerimeter;snapToPoint=1;" parent="1" vertex="1">
          <mxGeometry x="305.89" y="209.94000000000003" width="20" height="20" as="geometry" />
        </mxCell>
        <mxCell id="PCGd_DvdktvaPrUJOzKs-32" value="" style="shape=waypoint;sketch=0;fillStyle=solid;size=6;pointerEvents=1;points=[];fillColor=none;resizable=0;rotatable=0;perimeter=centerPerimeter;snapToPoint=1;" parent="1" vertex="1">
          <mxGeometry x="305.89" y="218.72" width="20" height="20" as="geometry" />
        </mxCell>
        <mxCell id="PCGd_DvdktvaPrUJOzKs-33" value="" style="shape=hexagon;perimeter=hexagonPerimeter2;whiteSpace=wrap;html=1;fixedSize=1;rotation=90;size=7.180000000000064;strokeColor=#99FF99;" parent="1" vertex="1">
          <mxGeometry x="282.35999999999996" y="215.22000000000003" width="38.59" height="10" as="geometry" />
        </mxCell>
        <mxCell id="PCGd_DvdktvaPrUJOzKs-34" value="" style="shape=waypoint;sketch=0;fillStyle=solid;size=6;pointerEvents=1;points=[];fillColor=none;resizable=0;rotatable=0;perimeter=centerPerimeter;snapToPoint=1;" parent="1" vertex="1">
          <mxGeometry x="291.65999999999997" y="202" width="20" height="20" as="geometry" />
        </mxCell>
        <mxCell id="PCGd_DvdktvaPrUJOzKs-35" value="" style="shape=waypoint;sketch=0;fillStyle=solid;size=6;pointerEvents=1;points=[];fillColor=none;resizable=0;rotatable=0;perimeter=centerPerimeter;snapToPoint=1;" parent="1" vertex="1">
          <mxGeometry x="291.65999999999997" y="210.22000000000003" width="20" height="20" as="geometry" />
        </mxCell>
        <mxCell id="PCGd_DvdktvaPrUJOzKs-36" value="" style="shape=waypoint;sketch=0;fillStyle=solid;size=6;pointerEvents=1;points=[];fillColor=none;resizable=0;rotatable=0;perimeter=centerPerimeter;snapToPoint=1;" parent="1" vertex="1">
          <mxGeometry x="291.65999999999997" y="219" width="20" height="20" as="geometry" />
        </mxCell>
        <mxCell id="PCGd_DvdktvaPrUJOzKs-37" value="" style="shape=hexagon;perimeter=hexagonPerimeter2;whiteSpace=wrap;html=1;fixedSize=1;rotation=90;size=7.180000000000064;strokeColor=#99FF99;" parent="1" vertex="1">
          <mxGeometry x="267.29999999999995" y="215.22000000000003" width="38.59" height="10" as="geometry" />
        </mxCell>
        <mxCell id="PCGd_DvdktvaPrUJOzKs-38" value="" style="shape=waypoint;sketch=0;fillStyle=solid;size=6;pointerEvents=1;points=[];fillColor=none;resizable=0;rotatable=0;perimeter=centerPerimeter;snapToPoint=1;" parent="1" vertex="1">
          <mxGeometry x="276.59999999999997" y="202" width="20" height="20" as="geometry" />
        </mxCell>
        <mxCell id="PCGd_DvdktvaPrUJOzKs-39" value="" style="shape=waypoint;sketch=0;fillStyle=solid;size=6;pointerEvents=1;points=[];fillColor=none;resizable=0;rotatable=0;perimeter=centerPerimeter;snapToPoint=1;" parent="1" vertex="1">
          <mxGeometry x="276.59999999999997" y="210.22000000000003" width="20" height="20" as="geometry" />
        </mxCell>
        <mxCell id="PCGd_DvdktvaPrUJOzKs-40" value="" style="shape=waypoint;sketch=0;fillStyle=solid;size=6;pointerEvents=1;points=[];fillColor=none;resizable=0;rotatable=0;perimeter=centerPerimeter;snapToPoint=1;" parent="1" vertex="1">
          <mxGeometry x="276.59999999999997" y="219" width="20" height="20" as="geometry" />
        </mxCell>
        <mxCell id="PCGd_DvdktvaPrUJOzKs-46" value="" style="shape=hexagon;perimeter=hexagonPerimeter2;whiteSpace=wrap;html=1;fixedSize=1;rotation=90;size=7.180000000000064;strokeColor=#99FF99;" parent="1" vertex="1">
          <mxGeometry x="282.35999999999996" y="255.22000000000003" width="38.59" height="10" as="geometry" />
        </mxCell>
        <mxCell id="PCGd_DvdktvaPrUJOzKs-47" value="" style="shape=waypoint;sketch=0;fillStyle=solid;size=6;pointerEvents=1;points=[];fillColor=none;resizable=0;rotatable=0;perimeter=centerPerimeter;snapToPoint=1;" parent="1" vertex="1">
          <mxGeometry x="291.65999999999997" y="242" width="20" height="20" as="geometry" />
        </mxCell>
        <mxCell id="PCGd_DvdktvaPrUJOzKs-48" value="" style="shape=waypoint;sketch=0;fillStyle=solid;size=6;pointerEvents=1;points=[];fillColor=none;resizable=0;rotatable=0;perimeter=centerPerimeter;snapToPoint=1;" parent="1" vertex="1">
          <mxGeometry x="291.65999999999997" y="250.22000000000003" width="20" height="20" as="geometry" />
        </mxCell>
        <mxCell id="PCGd_DvdktvaPrUJOzKs-49" value="" style="shape=waypoint;sketch=0;fillStyle=solid;size=6;pointerEvents=1;points=[];fillColor=none;resizable=0;rotatable=0;perimeter=centerPerimeter;snapToPoint=1;" parent="1" vertex="1">
          <mxGeometry x="291.65999999999997" y="259" width="20" height="20" as="geometry" />
        </mxCell>
        <mxCell id="PCGd_DvdktvaPrUJOzKs-50" value="" style="shape=hexagon;perimeter=hexagonPerimeter2;whiteSpace=wrap;html=1;fixedSize=1;rotation=90;size=7.180000000000064;strokeColor=#99FF99;" parent="1" vertex="1">
          <mxGeometry x="267.29999999999995" y="255.22000000000003" width="38.59" height="10" as="geometry" />
        </mxCell>
        <mxCell id="PCGd_DvdktvaPrUJOzKs-51" value="" style="shape=waypoint;sketch=0;fillStyle=solid;size=6;pointerEvents=1;points=[];fillColor=none;resizable=0;rotatable=0;perimeter=centerPerimeter;snapToPoint=1;" parent="1" vertex="1">
          <mxGeometry x="276.59999999999997" y="242" width="20" height="20" as="geometry" />
        </mxCell>
        <mxCell id="PCGd_DvdktvaPrUJOzKs-52" value="" style="shape=waypoint;sketch=0;fillStyle=solid;size=6;pointerEvents=1;points=[];fillColor=none;resizable=0;rotatable=0;perimeter=centerPerimeter;snapToPoint=1;" parent="1" vertex="1">
          <mxGeometry x="276.59999999999997" y="250.22000000000003" width="20" height="20" as="geometry" />
        </mxCell>
        <mxCell id="PCGd_DvdktvaPrUJOzKs-53" value="" style="shape=waypoint;sketch=0;fillStyle=solid;size=6;pointerEvents=1;points=[];fillColor=none;resizable=0;rotatable=0;perimeter=centerPerimeter;snapToPoint=1;" parent="1" vertex="1">
          <mxGeometry x="276.59999999999997" y="259" width="20" height="20" as="geometry" />
        </mxCell>
        <mxCell id="PCGd_DvdktvaPrUJOzKs-54" value="" style="shape=hexagon;perimeter=hexagonPerimeter2;whiteSpace=wrap;html=1;fixedSize=1;rotation=90;size=7.180000000000064;strokeColor=#99FF99;" parent="1" vertex="1">
          <mxGeometry x="301.35" y="250.07" width="29.06" height="10" as="geometry" />
        </mxCell>
        <mxCell id="PCGd_DvdktvaPrUJOzKs-55" value="" style="shape=waypoint;sketch=0;fillStyle=solid;size=6;pointerEvents=1;points=[];fillColor=none;resizable=0;rotatable=0;perimeter=centerPerimeter;snapToPoint=1;" parent="1" vertex="1">
          <mxGeometry x="305.88" y="242" width="20" height="20" as="geometry" />
        </mxCell>
        <mxCell id="PCGd_DvdktvaPrUJOzKs-56" value="" style="shape=waypoint;sketch=0;fillStyle=solid;size=6;pointerEvents=1;points=[];fillColor=none;resizable=0;rotatable=0;perimeter=centerPerimeter;snapToPoint=1;" parent="1" vertex="1">
          <mxGeometry x="305.88" y="250.22000000000003" width="20" height="20" as="geometry" />
        </mxCell>
        <mxCell id="PCGd_DvdktvaPrUJOzKs-59" value="" style="shape=waypoint;sketch=0;fillStyle=solid;size=6;pointerEvents=1;points=[];fillColor=none;resizable=0;rotatable=0;perimeter=centerPerimeter;snapToPoint=1;" parent="1" vertex="1">
          <mxGeometry x="377.12" y="201.72" width="20" height="20" as="geometry" />
        </mxCell>
        <mxCell id="PCGd_DvdktvaPrUJOzKs-62" value="" style="shape=waypoint;sketch=0;fillStyle=solid;size=6;pointerEvents=1;points=[];fillColor=none;resizable=0;rotatable=0;perimeter=centerPerimeter;snapToPoint=1;" parent="1" vertex="1">
          <mxGeometry x="320" y="242" width="20" height="20" as="geometry" />
        </mxCell>
        <mxCell id="PCGd_DvdktvaPrUJOzKs-63" value="" style="shape=waypoint;sketch=0;fillStyle=solid;size=6;pointerEvents=1;points=[];fillColor=none;resizable=0;rotatable=0;perimeter=centerPerimeter;snapToPoint=1;" parent="1" vertex="1">
          <mxGeometry x="276.6" y="275.22" width="20" height="20" as="geometry" />
        </mxCell>
        <mxCell id="PCGd_DvdktvaPrUJOzKs-64" value="" style="endArrow=none;dashed=1;html=1;rounded=0;" parent="1" edge="1">
          <mxGeometry width="50" height="50" relative="1" as="geometry">
            <mxPoint x="280" y="480" as="sourcePoint" />
            <mxPoint x="280" y="200" as="targetPoint" />
          </mxGeometry>
        </mxCell>
        <mxCell id="PCGd_DvdktvaPrUJOzKs-74" value="" style="rounded=0;whiteSpace=wrap;html=1;strokeColor=#FF9999;" parent="1" vertex="1">
          <mxGeometry x="268" y="204.61" width="10" height="30.11" as="geometry" />
        </mxCell>
        <mxCell id="PCGd_DvdktvaPrUJOzKs-75" value="" style="shape=waypoint;sketch=0;fillStyle=solid;size=6;pointerEvents=1;points=[];fillColor=none;resizable=0;rotatable=0;perimeter=centerPerimeter;snapToPoint=1;" parent="1" vertex="1">
          <mxGeometry x="263.29999999999995" y="201.72" width="20" height="20" as="geometry" />
        </mxCell>
        <mxCell id="PCGd_DvdktvaPrUJOzKs-76" value="" style="shape=waypoint;sketch=0;fillStyle=solid;size=6;pointerEvents=1;points=[];fillColor=none;resizable=0;rotatable=0;perimeter=centerPerimeter;snapToPoint=1;" parent="1" vertex="1">
          <mxGeometry x="263.29999999999995" y="209.94000000000003" width="20" height="20" as="geometry" />
        </mxCell>
        <mxCell id="PCGd_DvdktvaPrUJOzKs-77" value="" style="shape=waypoint;sketch=0;fillStyle=solid;size=6;pointerEvents=1;points=[];fillColor=none;resizable=0;rotatable=0;perimeter=centerPerimeter;snapToPoint=1;" parent="1" vertex="1">
          <mxGeometry x="263.29999999999995" y="218.72" width="20" height="20" as="geometry" />
        </mxCell>
        <mxCell id="PCGd_DvdktvaPrUJOzKs-81" value="" style="rounded=0;whiteSpace=wrap;html=1;strokeColor=#FF9999;" parent="1" vertex="1">
          <mxGeometry x="255.7" y="204.33" width="10" height="30.11" as="geometry" />
        </mxCell>
        <mxCell id="PCGd_DvdktvaPrUJOzKs-82" value="" style="shape=waypoint;sketch=0;fillStyle=solid;size=6;pointerEvents=1;points=[];fillColor=none;resizable=0;rotatable=0;perimeter=centerPerimeter;snapToPoint=1;" parent="1" vertex="1">
          <mxGeometry x="250.99999999999994" y="201.44" width="20" height="20" as="geometry" />
        </mxCell>
        <mxCell id="PCGd_DvdktvaPrUJOzKs-83" value="" style="shape=waypoint;sketch=0;fillStyle=solid;size=6;pointerEvents=1;points=[];fillColor=none;resizable=0;rotatable=0;perimeter=centerPerimeter;snapToPoint=1;" parent="1" vertex="1">
          <mxGeometry x="250.99999999999994" y="209.66000000000003" width="20" height="20" as="geometry" />
        </mxCell>
        <mxCell id="PCGd_DvdktvaPrUJOzKs-84" value="" style="shape=waypoint;sketch=0;fillStyle=solid;size=6;pointerEvents=1;points=[];fillColor=none;resizable=0;rotatable=0;perimeter=centerPerimeter;snapToPoint=1;" parent="1" vertex="1">
          <mxGeometry x="250.99999999999994" y="218.44" width="20" height="20" as="geometry" />
        </mxCell>
        <mxCell id="PCGd_DvdktvaPrUJOzKs-110" value="" style="endArrow=none;html=1;rounded=0;" parent="1" edge="1">
          <mxGeometry width="50" height="50" relative="1" as="geometry">
            <mxPoint x="180" y="300" as="sourcePoint" />
            <mxPoint x="400" y="300" as="targetPoint" />
          </mxGeometry>
        </mxCell>
        <mxCell id="PCGd_DvdktvaPrUJOzKs-111" value="" style="rounded=0;whiteSpace=wrap;html=1;strokeColor=#FF9999;" parent="1" vertex="1">
          <mxGeometry x="243.7" y="204.33" width="10" height="30.11" as="geometry" />
        </mxCell>
        <mxCell id="PCGd_DvdktvaPrUJOzKs-112" value="" style="rounded=0;whiteSpace=wrap;html=1;strokeColor=#FF9999;" parent="1" vertex="1">
          <mxGeometry x="231.39999999999998" y="204.05" width="10" height="30.11" as="geometry" />
        </mxCell>
        <mxCell id="PCGd_DvdktvaPrUJOzKs-113" value="" style="shape=waypoint;sketch=0;fillStyle=solid;size=6;pointerEvents=1;points=[];fillColor=none;resizable=0;rotatable=0;perimeter=centerPerimeter;snapToPoint=1;" parent="1" vertex="1">
          <mxGeometry x="226.69999999999993" y="201.16" width="20" height="20" as="geometry" />
        </mxCell>
        <mxCell id="PCGd_DvdktvaPrUJOzKs-114" value="" style="shape=waypoint;sketch=0;fillStyle=solid;size=6;pointerEvents=1;points=[];fillColor=none;resizable=0;rotatable=0;perimeter=centerPerimeter;snapToPoint=1;" parent="1" vertex="1">
          <mxGeometry x="226.69999999999993" y="209.38000000000002" width="20" height="20" as="geometry" />
        </mxCell>
        <mxCell id="PCGd_DvdktvaPrUJOzKs-115" value="" style="shape=waypoint;sketch=0;fillStyle=solid;size=6;pointerEvents=1;points=[];fillColor=none;resizable=0;rotatable=0;perimeter=centerPerimeter;snapToPoint=1;" parent="1" vertex="1">
          <mxGeometry x="226.69999999999993" y="218.16" width="20" height="20" as="geometry" />
        </mxCell>
        <mxCell id="PCGd_DvdktvaPrUJOzKs-116" value="" style="rounded=0;whiteSpace=wrap;html=1;strokeColor=#FF9999;" parent="1" vertex="1">
          <mxGeometry x="219.4" y="204.05" width="10" height="30.11" as="geometry" />
        </mxCell>
        <mxCell id="PCGd_DvdktvaPrUJOzKs-117" value="" style="rounded=0;whiteSpace=wrap;html=1;strokeColor=#FF9999;" parent="1" vertex="1">
          <mxGeometry x="207.1" y="203.77" width="10" height="30.11" as="geometry" />
        </mxCell>
        <mxCell id="PCGd_DvdktvaPrUJOzKs-118" value="" style="shape=waypoint;sketch=0;fillStyle=solid;size=6;pointerEvents=1;points=[];fillColor=none;resizable=0;rotatable=0;perimeter=centerPerimeter;snapToPoint=1;" parent="1" vertex="1">
          <mxGeometry x="202.39999999999995" y="200.88" width="20" height="20" as="geometry" />
        </mxCell>
        <mxCell id="PCGd_DvdktvaPrUJOzKs-119" value="" style="shape=waypoint;sketch=0;fillStyle=solid;size=6;pointerEvents=1;points=[];fillColor=none;resizable=0;rotatable=0;perimeter=centerPerimeter;snapToPoint=1;" parent="1" vertex="1">
          <mxGeometry x="202.39999999999995" y="209.10000000000002" width="20" height="20" as="geometry" />
        </mxCell>
        <mxCell id="PCGd_DvdktvaPrUJOzKs-120" value="" style="shape=waypoint;sketch=0;fillStyle=solid;size=6;pointerEvents=1;points=[];fillColor=none;resizable=0;rotatable=0;perimeter=centerPerimeter;snapToPoint=1;" parent="1" vertex="1">
          <mxGeometry x="202.39999999999995" y="217.88" width="20" height="20" as="geometry" />
        </mxCell>
        <mxCell id="PCGd_DvdktvaPrUJOzKs-121" value="" style="shape=waypoint;sketch=0;fillStyle=solid;size=6;pointerEvents=1;points=[];fillColor=none;resizable=0;rotatable=0;perimeter=centerPerimeter;snapToPoint=1;" parent="1" vertex="1">
          <mxGeometry x="214.39999999999992" y="200.32" width="20" height="20" as="geometry" />
        </mxCell>
        <mxCell id="PCGd_DvdktvaPrUJOzKs-122" value="" style="shape=waypoint;sketch=0;fillStyle=solid;size=6;pointerEvents=1;points=[];fillColor=none;resizable=0;rotatable=0;perimeter=centerPerimeter;snapToPoint=1;" parent="1" vertex="1">
          <mxGeometry x="214.39999999999992" y="208.54000000000002" width="20" height="20" as="geometry" />
        </mxCell>
        <mxCell id="PCGd_DvdktvaPrUJOzKs-123" value="" style="shape=waypoint;sketch=0;fillStyle=solid;size=6;pointerEvents=1;points=[];fillColor=none;resizable=0;rotatable=0;perimeter=centerPerimeter;snapToPoint=1;" parent="1" vertex="1">
          <mxGeometry x="214.39999999999992" y="217.32" width="20" height="20" as="geometry" />
        </mxCell>
        <mxCell id="PCGd_DvdktvaPrUJOzKs-124" value="" style="shape=waypoint;sketch=0;fillStyle=solid;size=6;pointerEvents=1;points=[];fillColor=none;resizable=0;rotatable=0;perimeter=centerPerimeter;snapToPoint=1;" parent="1" vertex="1">
          <mxGeometry x="238.69999999999993" y="200.89" width="20" height="20" as="geometry" />
        </mxCell>
        <mxCell id="PCGd_DvdktvaPrUJOzKs-125" value="" style="shape=waypoint;sketch=0;fillStyle=solid;size=6;pointerEvents=1;points=[];fillColor=none;resizable=0;rotatable=0;perimeter=centerPerimeter;snapToPoint=1;" parent="1" vertex="1">
          <mxGeometry x="238.69999999999993" y="209.11" width="20" height="20" as="geometry" />
        </mxCell>
        <mxCell id="PCGd_DvdktvaPrUJOzKs-126" value="" style="shape=waypoint;sketch=0;fillStyle=solid;size=6;pointerEvents=1;points=[];fillColor=none;resizable=0;rotatable=0;perimeter=centerPerimeter;snapToPoint=1;" parent="1" vertex="1">
          <mxGeometry x="238.69999999999993" y="217.89" width="20" height="20" as="geometry" />
        </mxCell>
        <mxCell id="PCGd_DvdktvaPrUJOzKs-133" value="" style="rounded=0;whiteSpace=wrap;html=1;strokeColor=#FF9999;" parent="1" vertex="1">
          <mxGeometry x="268" y="244.75" width="10" height="30.11" as="geometry" />
        </mxCell>
        <mxCell id="PCGd_DvdktvaPrUJOzKs-134" value="" style="shape=waypoint;sketch=0;fillStyle=solid;size=6;pointerEvents=1;points=[];fillColor=none;resizable=0;rotatable=0;perimeter=centerPerimeter;snapToPoint=1;" parent="1" vertex="1">
          <mxGeometry x="263.29999999999995" y="241.85999999999999" width="20" height="20" as="geometry" />
        </mxCell>
        <mxCell id="PCGd_DvdktvaPrUJOzKs-135" value="" style="shape=waypoint;sketch=0;fillStyle=solid;size=6;pointerEvents=1;points=[];fillColor=none;resizable=0;rotatable=0;perimeter=centerPerimeter;snapToPoint=1;" parent="1" vertex="1">
          <mxGeometry x="263.29999999999995" y="250.08" width="20" height="20" as="geometry" />
        </mxCell>
        <mxCell id="PCGd_DvdktvaPrUJOzKs-136" value="" style="shape=waypoint;sketch=0;fillStyle=solid;size=6;pointerEvents=1;points=[];fillColor=none;resizable=0;rotatable=0;perimeter=centerPerimeter;snapToPoint=1;" parent="1" vertex="1">
          <mxGeometry x="263.29999999999995" y="258.86" width="20" height="20" as="geometry" />
        </mxCell>
        <mxCell id="PCGd_DvdktvaPrUJOzKs-137" value="" style="rounded=0;whiteSpace=wrap;html=1;strokeColor=#FF9999;" parent="1" vertex="1">
          <mxGeometry x="255.7" y="244.47" width="10" height="30.11" as="geometry" />
        </mxCell>
        <mxCell id="PCGd_DvdktvaPrUJOzKs-138" value="" style="shape=waypoint;sketch=0;fillStyle=solid;size=6;pointerEvents=1;points=[];fillColor=none;resizable=0;rotatable=0;perimeter=centerPerimeter;snapToPoint=1;" parent="1" vertex="1">
          <mxGeometry x="250.99999999999994" y="241.57999999999998" width="20" height="20" as="geometry" />
        </mxCell>
        <mxCell id="PCGd_DvdktvaPrUJOzKs-139" value="" style="shape=waypoint;sketch=0;fillStyle=solid;size=6;pointerEvents=1;points=[];fillColor=none;resizable=0;rotatable=0;perimeter=centerPerimeter;snapToPoint=1;" parent="1" vertex="1">
          <mxGeometry x="250.99999999999994" y="249.8" width="20" height="20" as="geometry" />
        </mxCell>
        <mxCell id="PCGd_DvdktvaPrUJOzKs-140" value="" style="shape=waypoint;sketch=0;fillStyle=solid;size=6;pointerEvents=1;points=[];fillColor=none;resizable=0;rotatable=0;perimeter=centerPerimeter;snapToPoint=1;" parent="1" vertex="1">
          <mxGeometry x="250.99999999999994" y="258.58" width="20" height="20" as="geometry" />
        </mxCell>
        <mxCell id="PCGd_DvdktvaPrUJOzKs-141" value="" style="rounded=0;whiteSpace=wrap;html=1;strokeColor=#FF9999;" parent="1" vertex="1">
          <mxGeometry x="243.7" y="244.47" width="10" height="30.11" as="geometry" />
        </mxCell>
        <mxCell id="PCGd_DvdktvaPrUJOzKs-142" value="" style="shape=waypoint;sketch=0;fillStyle=solid;size=6;pointerEvents=1;points=[];fillColor=none;resizable=0;rotatable=0;perimeter=centerPerimeter;snapToPoint=1;" parent="1" vertex="1">
          <mxGeometry x="238.69999999999993" y="241.30999999999997" width="20" height="20" as="geometry" />
        </mxCell>
        <mxCell id="PCGd_DvdktvaPrUJOzKs-143" value="" style="shape=waypoint;sketch=0;fillStyle=solid;size=6;pointerEvents=1;points=[];fillColor=none;resizable=0;rotatable=0;perimeter=centerPerimeter;snapToPoint=1;" parent="1" vertex="1">
          <mxGeometry x="238.69999999999993" y="249.53" width="20" height="20" as="geometry" />
        </mxCell>
        <mxCell id="PCGd_DvdktvaPrUJOzKs-144" value="" style="shape=waypoint;sketch=0;fillStyle=solid;size=6;pointerEvents=1;points=[];fillColor=none;resizable=0;rotatable=0;perimeter=centerPerimeter;snapToPoint=1;" parent="1" vertex="1">
          <mxGeometry x="238.69999999999993" y="258.31" width="20" height="20" as="geometry" />
        </mxCell>
        <mxCell id="PCGd_DvdktvaPrUJOzKs-150" value="" style="shape=waypoint;sketch=0;fillStyle=solid;size=6;pointerEvents=1;points=[];fillColor=none;resizable=0;rotatable=0;perimeter=centerPerimeter;snapToPoint=1;" parent="1" vertex="1">
          <mxGeometry x="251" y="274.58" width="20" height="20" as="geometry" />
        </mxCell>
        <mxCell id="PCGd_DvdktvaPrUJOzKs-154" value="" style="shape=waypoint;sketch=0;fillStyle=solid;size=6;pointerEvents=1;points=[];fillColor=none;resizable=0;rotatable=0;perimeter=centerPerimeter;snapToPoint=1;" parent="1" vertex="1">
          <mxGeometry x="214.4" y="240.68" width="20" height="20" as="geometry" />
        </mxCell>
        <mxCell id="PCGd_DvdktvaPrUJOzKs-155" value="" style="shape=waypoint;sketch=0;fillStyle=solid;size=6;pointerEvents=1;points=[];fillColor=none;resizable=0;rotatable=0;perimeter=centerPerimeter;snapToPoint=1;" parent="1" vertex="1">
          <mxGeometry x="187.09999999999997" y="201.23999999999998" width="20" height="20" as="geometry" />
        </mxCell>
        <mxCell id="PCGd_DvdktvaPrUJOzKs-156" value="" style="shape=waypoint;sketch=0;fillStyle=solid;size=6;pointerEvents=1;points=[];fillColor=none;resizable=0;rotatable=0;perimeter=centerPerimeter;snapToPoint=1;" parent="1" vertex="1">
          <mxGeometry x="187.09999999999997" y="209.46" width="20" height="20" as="geometry" />
        </mxCell>
        <mxCell id="PCGd_DvdktvaPrUJOzKs-157" value="" style="shape=waypoint;sketch=0;fillStyle=solid;size=6;pointerEvents=1;points=[];fillColor=none;resizable=0;rotatable=0;perimeter=centerPerimeter;snapToPoint=1;" parent="1" vertex="1">
          <mxGeometry x="174.8" y="200.67999999999998" width="20" height="20" as="geometry" />
        </mxCell>
        <mxCell id="Tv-2tQCTAZa6AO8zfYgc-6" value="" style="shape=waypoint;sketch=0;fillStyle=solid;size=6;pointerEvents=1;points=[];fillColor=none;resizable=0;rotatable=0;perimeter=centerPerimeter;snapToPoint=1;strokeColor=#99FF99;" vertex="1" parent="1">
          <mxGeometry x="365.22999999999996" y="303.64" width="20" height="20" as="geometry" />
        </mxCell>
        <mxCell id="Tv-2tQCTAZa6AO8zfYgc-24" value="" style="shape=hexagon;perimeter=hexagonPerimeter2;whiteSpace=wrap;html=1;fixedSize=1;rotation=90;size=7.180000000000064;strokeColor=#99FF99;" vertex="1" parent="1">
          <mxGeometry x="267.99999999999994" y="315.86" width="38.59" height="10" as="geometry" />
        </mxCell>
        <mxCell id="Tv-2tQCTAZa6AO8zfYgc-33" value="" style="shape=waypoint;sketch=0;fillStyle=solid;size=6;pointerEvents=1;points=[];fillColor=none;resizable=0;rotatable=0;perimeter=centerPerimeter;snapToPoint=1;" vertex="1" parent="1">
          <mxGeometry x="377.82" y="303.36" width="20" height="20" as="geometry" />
        </mxCell>
        <mxCell id="Tv-2tQCTAZa6AO8zfYgc-36" value="" style="shape=hexagon;perimeter=hexagonPerimeter2;whiteSpace=wrap;html=1;fixedSize=1;rotation=90;size=7.180000000000064;" vertex="1" parent="1">
          <mxGeometry x="287.12" y="310.43" width="29.06" height="10" as="geometry" />
        </mxCell>
        <mxCell id="Tv-2tQCTAZa6AO8zfYgc-37" value="" style="shape=waypoint;sketch=0;fillStyle=solid;size=6;pointerEvents=1;points=[];fillColor=none;resizable=0;rotatable=0;perimeter=centerPerimeter;snapToPoint=1;strokeColor=#99FF99;" vertex="1" parent="1">
          <mxGeometry x="291.65" y="302.36" width="20" height="20" as="geometry" />
        </mxCell>
        <mxCell id="Tv-2tQCTAZa6AO8zfYgc-38" value="" style="shape=waypoint;sketch=0;fillStyle=solid;size=6;pointerEvents=1;points=[];fillColor=none;resizable=0;rotatable=0;perimeter=centerPerimeter;snapToPoint=1;strokeColor=#99FF99;" vertex="1" parent="1">
          <mxGeometry x="291.65" y="310.58000000000004" width="20" height="20" as="geometry" />
        </mxCell>
        <mxCell id="Tv-2tQCTAZa6AO8zfYgc-39" value="" style="shape=hexagon;perimeter=hexagonPerimeter2;whiteSpace=wrap;html=1;fixedSize=1;rotation=90;size=7.180000000000064;" vertex="1" parent="1">
          <mxGeometry x="301.36" y="310.71" width="29.06" height="10" as="geometry" />
        </mxCell>
        <mxCell id="Tv-2tQCTAZa6AO8zfYgc-40" value="" style="shape=waypoint;sketch=0;fillStyle=solid;size=6;pointerEvents=1;points=[];fillColor=none;resizable=0;rotatable=0;perimeter=centerPerimeter;snapToPoint=1;strokeColor=#99FF99;" vertex="1" parent="1">
          <mxGeometry x="305.89" y="302.64" width="20" height="20" as="geometry" />
        </mxCell>
        <mxCell id="Tv-2tQCTAZa6AO8zfYgc-41" value="" style="shape=waypoint;sketch=0;fillStyle=solid;size=6;pointerEvents=1;points=[];fillColor=none;resizable=0;rotatable=0;perimeter=centerPerimeter;snapToPoint=1;strokeColor=#99FF99;" vertex="1" parent="1">
          <mxGeometry x="305.89" y="310.86" width="20" height="20" as="geometry" />
        </mxCell>
        <mxCell id="Tv-2tQCTAZa6AO8zfYgc-42" value="" style="shape=hexagon;perimeter=hexagonPerimeter2;whiteSpace=wrap;html=1;fixedSize=1;rotation=90;size=7.180000000000064;" vertex="1" parent="1">
          <mxGeometry x="316.18" y="310.67" width="29.06" height="10" as="geometry" />
        </mxCell>
        <mxCell id="Tv-2tQCTAZa6AO8zfYgc-43" value="" style="shape=waypoint;sketch=0;fillStyle=solid;size=6;pointerEvents=1;points=[];fillColor=none;resizable=0;rotatable=0;perimeter=centerPerimeter;snapToPoint=1;strokeColor=#99FF99;" vertex="1" parent="1">
          <mxGeometry x="320.71" y="302.6" width="20" height="20" as="geometry" />
        </mxCell>
        <mxCell id="Tv-2tQCTAZa6AO8zfYgc-44" value="" style="shape=waypoint;sketch=0;fillStyle=solid;size=6;pointerEvents=1;points=[];fillColor=none;resizable=0;rotatable=0;perimeter=centerPerimeter;snapToPoint=1;strokeColor=#99FF99;" vertex="1" parent="1">
          <mxGeometry x="320.71" y="310.82000000000005" width="20" height="20" as="geometry" />
        </mxCell>
        <mxCell id="Tv-2tQCTAZa6AO8zfYgc-45" value="" style="shape=hexagon;perimeter=hexagonPerimeter2;whiteSpace=wrap;html=1;fixedSize=1;rotation=90;size=7.180000000000064;" vertex="1" parent="1">
          <mxGeometry x="330.94" y="310.67" width="29.06" height="10" as="geometry" />
        </mxCell>
        <mxCell id="Tv-2tQCTAZa6AO8zfYgc-46" value="" style="shape=waypoint;sketch=0;fillStyle=solid;size=6;pointerEvents=1;points=[];fillColor=none;resizable=0;rotatable=0;perimeter=centerPerimeter;snapToPoint=1;strokeColor=#99FF99;" vertex="1" parent="1">
          <mxGeometry x="335.46999999999997" y="302.6" width="20" height="20" as="geometry" />
        </mxCell>
        <mxCell id="Tv-2tQCTAZa6AO8zfYgc-47" value="" style="shape=waypoint;sketch=0;fillStyle=solid;size=6;pointerEvents=1;points=[];fillColor=none;resizable=0;rotatable=0;perimeter=centerPerimeter;snapToPoint=1;" vertex="1" parent="1">
          <mxGeometry x="335.46999999999997" y="310.82000000000005" width="20" height="20" as="geometry" />
        </mxCell>
        <mxCell id="Tv-2tQCTAZa6AO8zfYgc-48" value="" style="shape=hexagon;perimeter=hexagonPerimeter2;whiteSpace=wrap;html=1;fixedSize=1;rotation=90;size=7.180000000000064;" vertex="1" parent="1">
          <mxGeometry x="345.77" y="310.67" width="29.06" height="10" as="geometry" />
        </mxCell>
        <mxCell id="Tv-2tQCTAZa6AO8zfYgc-49" value="" style="shape=waypoint;sketch=0;fillStyle=solid;size=6;pointerEvents=1;points=[];fillColor=none;resizable=0;rotatable=0;perimeter=centerPerimeter;snapToPoint=1;strokeColor=#99FF99;" vertex="1" parent="1">
          <mxGeometry x="350.29999999999995" y="302.6" width="20" height="20" as="geometry" />
        </mxCell>
        <mxCell id="Tv-2tQCTAZa6AO8zfYgc-50" value="" style="shape=waypoint;sketch=0;fillStyle=solid;size=6;pointerEvents=1;points=[];fillColor=none;resizable=0;rotatable=0;perimeter=centerPerimeter;snapToPoint=1;" vertex="1" parent="1">
          <mxGeometry x="350.29999999999995" y="310.82000000000005" width="20" height="20" as="geometry" />
        </mxCell>
        <mxCell id="Tv-2tQCTAZa6AO8zfYgc-51" value="" style="shape=waypoint;sketch=0;fillStyle=solid;size=6;pointerEvents=1;points=[];fillColor=none;resizable=0;rotatable=0;perimeter=centerPerimeter;snapToPoint=1;strokeColor=#99FF99;" vertex="1" parent="1">
          <mxGeometry x="276.99999999999994" y="302.08" width="20" height="20" as="geometry" />
        </mxCell>
        <mxCell id="Tv-2tQCTAZa6AO8zfYgc-52" value="" style="shape=waypoint;sketch=0;fillStyle=solid;size=6;pointerEvents=1;points=[];fillColor=none;resizable=0;rotatable=0;perimeter=centerPerimeter;snapToPoint=1;strokeColor=#99FF99;" vertex="1" parent="1">
          <mxGeometry x="276.99999999999994" y="310.3" width="20" height="20" as="geometry" />
        </mxCell>
        <mxCell id="Tv-2tQCTAZa6AO8zfYgc-53" value="" style="shape=waypoint;sketch=0;fillStyle=solid;size=6;pointerEvents=1;points=[];fillColor=none;resizable=0;rotatable=0;perimeter=centerPerimeter;snapToPoint=1;" vertex="1" parent="1">
          <mxGeometry x="276.99999999999994" y="319.08" width="20" height="20" as="geometry" />
        </mxCell>
        <mxCell id="Tv-2tQCTAZa6AO8zfYgc-54" value="" style="rounded=0;whiteSpace=wrap;html=1;strokeColor=#FF9999;" vertex="1" parent="1">
          <mxGeometry x="268" y="306.37" width="10" height="30.11" as="geometry" />
        </mxCell>
        <mxCell id="Tv-2tQCTAZa6AO8zfYgc-55" value="" style="rounded=0;whiteSpace=wrap;html=1;strokeColor=#FF9999;" vertex="1" parent="1">
          <mxGeometry x="255.7" y="306.09000000000003" width="10" height="30.11" as="geometry" />
        </mxCell>
        <mxCell id="Tv-2tQCTAZa6AO8zfYgc-56" value="" style="shape=waypoint;sketch=0;fillStyle=solid;size=6;pointerEvents=1;points=[];fillColor=none;resizable=0;rotatable=0;perimeter=centerPerimeter;snapToPoint=1;strokeColor=#3333FF;" vertex="1" parent="1">
          <mxGeometry x="250.99999999999994" y="303.2" width="20" height="20" as="geometry" />
        </mxCell>
        <mxCell id="Tv-2tQCTAZa6AO8zfYgc-57" value="" style="shape=waypoint;sketch=0;fillStyle=solid;size=6;pointerEvents=1;points=[];fillColor=none;resizable=0;rotatable=0;perimeter=centerPerimeter;snapToPoint=1;strokeColor=#3333FF;" vertex="1" parent="1">
          <mxGeometry x="250.99999999999994" y="311.42" width="20" height="20" as="geometry" />
        </mxCell>
        <mxCell id="Tv-2tQCTAZa6AO8zfYgc-58" value="" style="rounded=0;whiteSpace=wrap;html=1;strokeColor=#FF9999;" vertex="1" parent="1">
          <mxGeometry x="243.7" y="306.09000000000003" width="10" height="30.11" as="geometry" />
        </mxCell>
        <mxCell id="Tv-2tQCTAZa6AO8zfYgc-59" value="" style="rounded=0;whiteSpace=wrap;html=1;strokeColor=#FF9999;" vertex="1" parent="1">
          <mxGeometry x="231.39999999999998" y="305.81" width="10" height="30.11" as="geometry" />
        </mxCell>
        <mxCell id="Tv-2tQCTAZa6AO8zfYgc-60" value="" style="shape=waypoint;sketch=0;fillStyle=solid;size=6;pointerEvents=1;points=[];fillColor=none;resizable=0;rotatable=0;perimeter=centerPerimeter;snapToPoint=1;strokeColor=#3333FF;" vertex="1" parent="1">
          <mxGeometry x="226.69999999999993" y="302.92" width="20" height="20" as="geometry" />
        </mxCell>
        <mxCell id="Tv-2tQCTAZa6AO8zfYgc-61" value="" style="shape=waypoint;sketch=0;fillStyle=solid;size=6;pointerEvents=1;points=[];fillColor=none;resizable=0;rotatable=0;perimeter=centerPerimeter;snapToPoint=1;strokeColor=#3333FF;" vertex="1" parent="1">
          <mxGeometry x="226.69999999999993" y="311.14000000000004" width="20" height="20" as="geometry" />
        </mxCell>
        <mxCell id="Tv-2tQCTAZa6AO8zfYgc-62" value="" style="rounded=0;whiteSpace=wrap;html=1;strokeColor=#FF9999;" vertex="1" parent="1">
          <mxGeometry x="219.4" y="305.81" width="10" height="30.11" as="geometry" />
        </mxCell>
        <mxCell id="Tv-2tQCTAZa6AO8zfYgc-64" value="" style="shape=waypoint;sketch=0;fillStyle=solid;size=6;pointerEvents=1;points=[];fillColor=none;resizable=0;rotatable=0;perimeter=centerPerimeter;snapToPoint=1;strokeColor=#3333FF;" vertex="1" parent="1">
          <mxGeometry x="202.39999999999995" y="302.64" width="20" height="20" as="geometry" />
        </mxCell>
        <mxCell id="Tv-2tQCTAZa6AO8zfYgc-65" value="" style="shape=waypoint;sketch=0;fillStyle=solid;size=6;pointerEvents=1;points=[];fillColor=none;resizable=0;rotatable=0;perimeter=centerPerimeter;snapToPoint=1;strokeColor=#FF9999;" vertex="1" parent="1">
          <mxGeometry x="202.39999999999995" y="310.86" width="20" height="20" as="geometry" />
        </mxCell>
        <mxCell id="Tv-2tQCTAZa6AO8zfYgc-66" value="" style="shape=waypoint;sketch=0;fillStyle=solid;size=6;pointerEvents=1;points=[];fillColor=none;resizable=0;rotatable=0;perimeter=centerPerimeter;snapToPoint=1;strokeColor=#3333FF;" vertex="1" parent="1">
          <mxGeometry x="214.39999999999992" y="302.08" width="20" height="20" as="geometry" />
        </mxCell>
        <mxCell id="Tv-2tQCTAZa6AO8zfYgc-67" value="" style="shape=waypoint;sketch=0;fillStyle=solid;size=6;pointerEvents=1;points=[];fillColor=none;resizable=0;rotatable=0;perimeter=centerPerimeter;snapToPoint=1;" vertex="1" parent="1">
          <mxGeometry x="214.39999999999992" y="310.3" width="20" height="20" as="geometry" />
        </mxCell>
        <mxCell id="Tv-2tQCTAZa6AO8zfYgc-68" value="" style="shape=waypoint;sketch=0;fillStyle=solid;size=6;pointerEvents=1;points=[];fillColor=none;resizable=0;rotatable=0;perimeter=centerPerimeter;snapToPoint=1;strokeColor=#3333FF;" vertex="1" parent="1">
          <mxGeometry x="238.69999999999993" y="302.65" width="20" height="20" as="geometry" />
        </mxCell>
        <mxCell id="Tv-2tQCTAZa6AO8zfYgc-69" value="" style="shape=waypoint;sketch=0;fillStyle=solid;size=6;pointerEvents=1;points=[];fillColor=none;resizable=0;rotatable=0;perimeter=centerPerimeter;snapToPoint=1;strokeColor=#3333FF;" vertex="1" parent="1">
          <mxGeometry x="238.69999999999993" y="310.87" width="20" height="20" as="geometry" />
        </mxCell>
        <mxCell id="Tv-2tQCTAZa6AO8zfYgc-72" value="" style="shape=waypoint;sketch=0;fillStyle=solid;size=6;pointerEvents=1;points=[];fillColor=none;resizable=0;rotatable=0;perimeter=centerPerimeter;snapToPoint=1;" vertex="1" parent="1">
          <mxGeometry x="174.8" y="302.44" width="20" height="20" as="geometry" />
        </mxCell>
        <mxCell id="Tv-2tQCTAZa6AO8zfYgc-73" value="" style="shape=waypoint;sketch=0;fillStyle=solid;size=6;pointerEvents=1;points=[];fillColor=none;resizable=0;rotatable=0;perimeter=centerPerimeter;snapToPoint=1;strokeColor=#3333FF;" vertex="1" parent="1">
          <mxGeometry x="263.29999999999995" y="301.79999999999995" width="20" height="20" as="geometry" />
        </mxCell>
        <mxCell id="Tv-2tQCTAZa6AO8zfYgc-74" value="" style="shape=waypoint;sketch=0;fillStyle=solid;size=6;pointerEvents=1;points=[];fillColor=none;resizable=0;rotatable=0;perimeter=centerPerimeter;snapToPoint=1;strokeColor=#3333FF;" vertex="1" parent="1">
          <mxGeometry x="263.29999999999995" y="310.02000000000004" width="20" height="20" as="geometry" />
        </mxCell>
        <mxCell id="Tv-2tQCTAZa6AO8zfYgc-75" value="" style="shape=waypoint;sketch=0;fillStyle=solid;size=6;pointerEvents=1;points=[];fillColor=none;resizable=0;rotatable=0;perimeter=centerPerimeter;snapToPoint=1;strokeColor=#3333FF;" vertex="1" parent="1">
          <mxGeometry x="263.29999999999995" y="318.8" width="20" height="20" as="geometry" />
        </mxCell>
        <mxCell id="Tv-2tQCTAZa6AO8zfYgc-79" value="" style="shape=waypoint;sketch=0;fillStyle=solid;size=6;pointerEvents=1;points=[];fillColor=none;resizable=0;rotatable=0;perimeter=centerPerimeter;snapToPoint=1;" vertex="1" parent="1">
          <mxGeometry x="187.09999999999994" y="301.8" width="20" height="20" as="geometry" />
        </mxCell>
        <mxCell id="Tv-2tQCTAZa6AO8zfYgc-80" value="" style="shape=waypoint;sketch=0;fillStyle=solid;size=6;pointerEvents=1;points=[];fillColor=none;resizable=0;rotatable=0;perimeter=centerPerimeter;snapToPoint=1;" vertex="1" parent="1">
          <mxGeometry x="187.09999999999994" y="310.02000000000004" width="20" height="20" as="geometry" />
        </mxCell>
        <mxCell id="Tv-2tQCTAZa6AO8zfYgc-81" value="" style="shape=waypoint;sketch=0;fillStyle=solid;size=6;pointerEvents=1;points=[];fillColor=none;resizable=0;rotatable=0;perimeter=centerPerimeter;snapToPoint=1;strokeColor=#FF9999;" vertex="1" parent="1">
          <mxGeometry x="187.09999999999994" y="318.8" width="20" height="20" as="geometry" />
        </mxCell>
        <mxCell id="Tv-2tQCTAZa6AO8zfYgc-82" value="" style="shape=waypoint;sketch=0;fillStyle=solid;size=6;pointerEvents=1;points=[];fillColor=none;resizable=0;rotatable=0;perimeter=centerPerimeter;snapToPoint=1;" vertex="1" parent="1">
          <mxGeometry x="250.99999999999994" y="319.36" width="20" height="20" as="geometry" />
        </mxCell>
        <mxCell id="Tv-2tQCTAZa6AO8zfYgc-83" value="" style="shape=waypoint;sketch=0;fillStyle=solid;size=6;pointerEvents=1;points=[];fillColor=none;resizable=0;rotatable=0;perimeter=centerPerimeter;snapToPoint=1;strokeColor=#FF9999;" vertex="1" parent="1">
          <mxGeometry x="226.69999999999993" y="319.08000000000004" width="20" height="20" as="geometry" />
        </mxCell>
        <mxCell id="Tv-2tQCTAZa6AO8zfYgc-85" value="" style="shape=waypoint;sketch=0;fillStyle=solid;size=6;pointerEvents=1;points=[];fillColor=none;resizable=0;rotatable=0;perimeter=centerPerimeter;snapToPoint=1;strokeColor=#FF9999;" vertex="1" parent="1">
          <mxGeometry x="214.39999999999992" y="318.24" width="20" height="20" as="geometry" />
        </mxCell>
        <mxCell id="Tv-2tQCTAZa6AO8zfYgc-86" value="" style="shape=waypoint;sketch=0;fillStyle=solid;size=6;pointerEvents=1;points=[];fillColor=none;resizable=0;rotatable=0;perimeter=centerPerimeter;snapToPoint=1;strokeColor=#FF9999;" vertex="1" parent="1">
          <mxGeometry x="238.69999999999993" y="318.81" width="20" height="20" as="geometry" />
        </mxCell>
        <mxCell id="Tv-2tQCTAZa6AO8zfYgc-87" value="" style="shape=waypoint;sketch=0;fillStyle=solid;size=6;pointerEvents=1;points=[];fillColor=none;resizable=0;rotatable=0;perimeter=centerPerimeter;snapToPoint=1;strokeColor=#FF9999;" vertex="1" parent="1">
          <mxGeometry x="226.69999999999993" y="336.4800000000001" width="20" height="20" as="geometry" />
        </mxCell>
        <mxCell id="Tv-2tQCTAZa6AO8zfYgc-88" value="" style="shape=waypoint;sketch=0;fillStyle=solid;size=6;pointerEvents=1;points=[];fillColor=none;resizable=0;rotatable=0;perimeter=centerPerimeter;snapToPoint=1;strokeColor=#FF9999;" vertex="1" parent="1">
          <mxGeometry x="214.39999999999992" y="336.48" width="20" height="20" as="geometry" />
        </mxCell>
        <mxCell id="Tv-2tQCTAZa6AO8zfYgc-89" value="" style="shape=waypoint;sketch=0;fillStyle=solid;size=6;pointerEvents=1;points=[];fillColor=none;resizable=0;rotatable=0;perimeter=centerPerimeter;snapToPoint=1;strokeColor=#FF9999;" vertex="1" parent="1">
          <mxGeometry x="238.69999999999993" y="336.48" width="20" height="20" as="geometry" />
        </mxCell>
        <mxCell id="Tv-2tQCTAZa6AO8zfYgc-90" value="" style="rounded=0;whiteSpace=wrap;html=1;strokeColor=#FF9999;" vertex="1" parent="1">
          <mxGeometry x="255.70000000000002" y="339.36" width="10" height="30.11" as="geometry" />
        </mxCell>
        <mxCell id="Tv-2tQCTAZa6AO8zfYgc-91" value="" style="shape=waypoint;sketch=0;fillStyle=solid;size=6;pointerEvents=1;points=[];fillColor=none;resizable=0;rotatable=0;perimeter=centerPerimeter;snapToPoint=1;strokeColor=#FF9999;" vertex="1" parent="1">
          <mxGeometry x="250.99999999999994" y="336.47999999999996" width="20" height="20" as="geometry" />
        </mxCell>
        <mxCell id="Tv-2tQCTAZa6AO8zfYgc-92" value="" style="shape=waypoint;sketch=0;fillStyle=solid;size=6;pointerEvents=1;points=[];fillColor=none;resizable=0;rotatable=0;perimeter=centerPerimeter;snapToPoint=1;strokeColor=#FF9999;" vertex="1" parent="1">
          <mxGeometry x="250.99999999999994" y="344.7" width="20" height="20" as="geometry" />
        </mxCell>
        <mxCell id="Tv-2tQCTAZa6AO8zfYgc-93" value="" style="shape=waypoint;sketch=0;fillStyle=solid;size=6;pointerEvents=1;points=[];fillColor=none;resizable=0;rotatable=0;perimeter=centerPerimeter;snapToPoint=1;strokeColor=#FF9999;" vertex="1" parent="1">
          <mxGeometry x="250.99999999999994" y="352.64" width="20" height="20" as="geometry" />
        </mxCell>
        <mxCell id="Tv-2tQCTAZa6AO8zfYgc-96" value="" style="endArrow=none;html=1;rounded=0;" edge="1" parent="1">
          <mxGeometry width="50" height="50" relative="1" as="geometry">
            <mxPoint x="179.82" y="379.64" as="sourcePoint" />
            <mxPoint x="400" y="380" as="targetPoint" />
          </mxGeometry>
        </mxCell>
        <mxCell id="Tv-2tQCTAZa6AO8zfYgc-97" value="" style="rounded=0;whiteSpace=wrap;html=1;strokeColor=#FF9999;" vertex="1" parent="1">
          <mxGeometry x="255.7" y="384.57" width="10" height="30.11" as="geometry" />
        </mxCell>
        <mxCell id="Tv-2tQCTAZa6AO8zfYgc-98" value="" style="rounded=0;whiteSpace=wrap;html=1;strokeColor=#FF9999;" vertex="1" parent="1">
          <mxGeometry x="243.39999999999998" y="384.29" width="10" height="30.11" as="geometry" />
        </mxCell>
        <mxCell id="Tv-2tQCTAZa6AO8zfYgc-101" value="" style="rounded=0;whiteSpace=wrap;html=1;strokeColor=#FF9999;" vertex="1" parent="1">
          <mxGeometry x="231.39999999999998" y="384.29" width="10" height="30.11" as="geometry" />
        </mxCell>
        <mxCell id="Tv-2tQCTAZa6AO8zfYgc-102" value="" style="rounded=0;whiteSpace=wrap;html=1;strokeColor=#FF9999;" vertex="1" parent="1">
          <mxGeometry x="219.09999999999997" y="384.01" width="10" height="30.11" as="geometry" />
        </mxCell>
        <mxCell id="Tv-2tQCTAZa6AO8zfYgc-105" value="" style="rounded=0;whiteSpace=wrap;html=1;strokeColor=#FF9999;" vertex="1" parent="1">
          <mxGeometry x="207.1" y="384.01" width="10" height="30.11" as="geometry" />
        </mxCell>
        <mxCell id="Tv-2tQCTAZa6AO8zfYgc-113" value="" style="shape=waypoint;sketch=0;fillStyle=solid;size=6;pointerEvents=1;points=[];fillColor=none;resizable=0;rotatable=0;perimeter=centerPerimeter;snapToPoint=1;" vertex="1" parent="1">
          <mxGeometry x="174.79999999999993" y="380" width="20" height="20" as="geometry" />
        </mxCell>
        <mxCell id="Tv-2tQCTAZa6AO8zfYgc-115" value="" style="shape=waypoint;sketch=0;fillStyle=solid;size=6;pointerEvents=1;points=[];fillColor=none;resizable=0;rotatable=0;perimeter=centerPerimeter;snapToPoint=1;strokeColor=#3333FF;" vertex="1" parent="1">
          <mxGeometry x="262.99999999999994" y="380.85" width="20" height="20" as="geometry" />
        </mxCell>
        <mxCell id="Tv-2tQCTAZa6AO8zfYgc-116" value="" style="shape=waypoint;sketch=0;fillStyle=solid;size=6;pointerEvents=1;points=[];fillColor=none;resizable=0;rotatable=0;perimeter=centerPerimeter;snapToPoint=1;strokeColor=#3333FF;" vertex="1" parent="1">
          <mxGeometry x="250.69999999999996" y="381.11999999999995" width="20" height="20" as="geometry" />
        </mxCell>
        <mxCell id="Tv-2tQCTAZa6AO8zfYgc-117" value="" style="shape=waypoint;sketch=0;fillStyle=solid;size=6;pointerEvents=1;points=[];fillColor=none;resizable=0;rotatable=0;perimeter=centerPerimeter;snapToPoint=1;strokeColor=#3333FF;" vertex="1" parent="1">
          <mxGeometry x="250.69999999999996" y="389.34000000000003" width="20" height="20" as="geometry" />
        </mxCell>
        <mxCell id="Tv-2tQCTAZa6AO8zfYgc-118" value="" style="shape=waypoint;sketch=0;fillStyle=solid;size=6;pointerEvents=1;points=[];fillColor=none;resizable=0;rotatable=0;perimeter=centerPerimeter;snapToPoint=1;strokeColor=#FF9999;" vertex="1" parent="1">
          <mxGeometry x="250.69999999999996" y="398.12" width="20" height="20" as="geometry" />
        </mxCell>
        <mxCell id="Tv-2tQCTAZa6AO8zfYgc-119" value="" style="shape=waypoint;sketch=0;fillStyle=solid;size=6;pointerEvents=1;points=[];fillColor=none;resizable=0;rotatable=0;perimeter=centerPerimeter;snapToPoint=1;strokeColor=#3333FF;" vertex="1" parent="1">
          <mxGeometry x="226.69999999999993" y="381.4" width="20" height="20" as="geometry" />
        </mxCell>
        <mxCell id="Tv-2tQCTAZa6AO8zfYgc-120" value="" style="shape=waypoint;sketch=0;fillStyle=solid;size=6;pointerEvents=1;points=[];fillColor=none;resizable=0;rotatable=0;perimeter=centerPerimeter;snapToPoint=1;strokeColor=#FF9999;" vertex="1" parent="1">
          <mxGeometry x="226.69999999999993" y="389.62" width="20" height="20" as="geometry" />
        </mxCell>
        <mxCell id="Tv-2tQCTAZa6AO8zfYgc-121" value="" style="shape=waypoint;sketch=0;fillStyle=solid;size=6;pointerEvents=1;points=[];fillColor=none;resizable=0;rotatable=0;perimeter=centerPerimeter;snapToPoint=1;strokeColor=#3333FF;" vertex="1" parent="1">
          <mxGeometry x="214.39999999999992" y="380.55999999999995" width="20" height="20" as="geometry" />
        </mxCell>
        <mxCell id="Tv-2tQCTAZa6AO8zfYgc-122" value="" style="shape=waypoint;sketch=0;fillStyle=solid;size=6;pointerEvents=1;points=[];fillColor=none;resizable=0;rotatable=0;perimeter=centerPerimeter;snapToPoint=1;strokeColor=#FF9999;" vertex="1" parent="1">
          <mxGeometry x="214.39999999999992" y="388.78" width="20" height="20" as="geometry" />
        </mxCell>
        <mxCell id="Tv-2tQCTAZa6AO8zfYgc-123" value="" style="shape=waypoint;sketch=0;fillStyle=solid;size=6;pointerEvents=1;points=[];fillColor=none;resizable=0;rotatable=0;perimeter=centerPerimeter;snapToPoint=1;strokeColor=#3333FF;" vertex="1" parent="1">
          <mxGeometry x="238.69999999999993" y="381.12999999999994" width="20" height="20" as="geometry" />
        </mxCell>
        <mxCell id="Tv-2tQCTAZa6AO8zfYgc-124" value="" style="shape=waypoint;sketch=0;fillStyle=solid;size=6;pointerEvents=1;points=[];fillColor=none;resizable=0;rotatable=0;perimeter=centerPerimeter;snapToPoint=1;strokeColor=#FF9999;" vertex="1" parent="1">
          <mxGeometry x="238.69999999999993" y="389.34999999999997" width="20" height="20" as="geometry" />
        </mxCell>
        <mxCell id="Tv-2tQCTAZa6AO8zfYgc-125" value="" style="shape=waypoint;sketch=0;fillStyle=solid;size=6;pointerEvents=1;points=[];fillColor=none;resizable=0;rotatable=0;perimeter=centerPerimeter;snapToPoint=1;strokeColor=#FF9999;" vertex="1" parent="1">
          <mxGeometry x="226.69999999999993" y="397.56" width="20" height="20" as="geometry" />
        </mxCell>
        <mxCell id="Tv-2tQCTAZa6AO8zfYgc-126" value="" style="shape=waypoint;sketch=0;fillStyle=solid;size=6;pointerEvents=1;points=[];fillColor=none;resizable=0;rotatable=0;perimeter=centerPerimeter;snapToPoint=1;strokeColor=#FF9999;" vertex="1" parent="1">
          <mxGeometry x="214.39999999999992" y="396.71999999999997" width="20" height="20" as="geometry" />
        </mxCell>
        <mxCell id="Tv-2tQCTAZa6AO8zfYgc-127" value="" style="shape=waypoint;sketch=0;fillStyle=solid;size=6;pointerEvents=1;points=[];fillColor=none;resizable=0;rotatable=0;perimeter=centerPerimeter;snapToPoint=1;strokeColor=#FF9999;" vertex="1" parent="1">
          <mxGeometry x="238.69999999999993" y="397.28999999999996" width="20" height="20" as="geometry" />
        </mxCell>
        <mxCell id="Tv-2tQCTAZa6AO8zfYgc-134" value="" style="shape=waypoint;sketch=0;fillStyle=solid;size=6;pointerEvents=1;points=[];fillColor=none;resizable=0;rotatable=0;perimeter=centerPerimeter;snapToPoint=1;strokeColor=#3333FF;" vertex="1" parent="1">
          <mxGeometry x="202.39999999999992" y="380.56" width="20" height="20" as="geometry" />
        </mxCell>
        <mxCell id="Tv-2tQCTAZa6AO8zfYgc-135" value="" style="shape=waypoint;sketch=0;fillStyle=solid;size=6;pointerEvents=1;points=[];fillColor=none;resizable=0;rotatable=0;perimeter=centerPerimeter;snapToPoint=1;strokeColor=#FF9999;" vertex="1" parent="1">
          <mxGeometry x="202.39999999999992" y="388.78000000000003" width="20" height="20" as="geometry" />
        </mxCell>
        <mxCell id="Tv-2tQCTAZa6AO8zfYgc-136" value="" style="shape=waypoint;sketch=0;fillStyle=solid;size=6;pointerEvents=1;points=[];fillColor=none;resizable=0;rotatable=0;perimeter=centerPerimeter;snapToPoint=1;strokeColor=#FF9999;" vertex="1" parent="1">
          <mxGeometry x="202.39999999999992" y="396.72" width="20" height="20" as="geometry" />
        </mxCell>
        <mxCell id="Tv-2tQCTAZa6AO8zfYgc-137" value="" style="rounded=0;whiteSpace=wrap;html=1;strokeColor=#FF9999;" vertex="1" parent="1">
          <mxGeometry x="195.10000000000008" y="384" width="10" height="30.11" as="geometry" />
        </mxCell>
        <mxCell id="Tv-2tQCTAZa6AO8zfYgc-138" value="" style="shape=waypoint;sketch=0;fillStyle=solid;size=6;pointerEvents=1;points=[];fillColor=none;resizable=0;rotatable=0;perimeter=centerPerimeter;snapToPoint=1;strokeColor=#000000;" vertex="1" parent="1">
          <mxGeometry x="190.39999999999998" y="381.11999999999995" width="20" height="20" as="geometry" />
        </mxCell>
        <mxCell id="Tv-2tQCTAZa6AO8zfYgc-139" value="" style="shape=waypoint;sketch=0;fillStyle=solid;size=6;pointerEvents=1;points=[];fillColor=none;resizable=0;rotatable=0;perimeter=centerPerimeter;snapToPoint=1;strokeColor=#000000;" vertex="1" parent="1">
          <mxGeometry x="190.39999999999998" y="389.34" width="20" height="20" as="geometry" />
        </mxCell>
        <mxCell id="Tv-2tQCTAZa6AO8zfYgc-140" value="" style="shape=waypoint;sketch=0;fillStyle=solid;size=6;pointerEvents=1;points=[];fillColor=none;resizable=0;rotatable=0;perimeter=centerPerimeter;snapToPoint=1;strokeColor=#FF9999;" vertex="1" parent="1">
          <mxGeometry x="190.39999999999998" y="397.28" width="20" height="20" as="geometry" />
        </mxCell>
        <mxCell id="Tv-2tQCTAZa6AO8zfYgc-141" value="" style="shape=waypoint;sketch=0;fillStyle=solid;size=6;pointerEvents=1;points=[];fillColor=none;resizable=0;rotatable=0;perimeter=centerPerimeter;snapToPoint=1;strokeColor=#FF9999;" vertex="1" parent="1">
          <mxGeometry x="238.69999999999993" y="409.61999999999995" width="20" height="20" as="geometry" />
        </mxCell>
        <mxCell id="Tv-2tQCTAZa6AO8zfYgc-142" value="" style="shape=waypoint;sketch=0;fillStyle=solid;size=6;pointerEvents=1;points=[];fillColor=none;resizable=0;rotatable=0;perimeter=centerPerimeter;snapToPoint=1;strokeColor=#99FF99;" vertex="1" parent="1">
          <mxGeometry x="366.22999999999996" y="381.63" width="20" height="20" as="geometry" />
        </mxCell>
        <mxCell id="Tv-2tQCTAZa6AO8zfYgc-143" value="" style="shape=waypoint;sketch=0;fillStyle=solid;size=6;pointerEvents=1;points=[];fillColor=none;resizable=0;rotatable=0;perimeter=centerPerimeter;snapToPoint=1;" vertex="1" parent="1">
          <mxGeometry x="378.82" y="381.35" width="20" height="20" as="geometry" />
        </mxCell>
        <mxCell id="Tv-2tQCTAZa6AO8zfYgc-144" value="" style="shape=waypoint;sketch=0;fillStyle=solid;size=6;pointerEvents=1;points=[];fillColor=none;resizable=0;rotatable=0;perimeter=centerPerimeter;snapToPoint=1;strokeColor=#99FF99;" vertex="1" parent="1">
          <mxGeometry x="292.65" y="380.35" width="20" height="20" as="geometry" />
        </mxCell>
        <mxCell id="Tv-2tQCTAZa6AO8zfYgc-145" value="" style="shape=waypoint;sketch=0;fillStyle=solid;size=6;pointerEvents=1;points=[];fillColor=none;resizable=0;rotatable=0;perimeter=centerPerimeter;snapToPoint=1;strokeColor=#99FF99;" vertex="1" parent="1">
          <mxGeometry x="306.89" y="380.63" width="20" height="20" as="geometry" />
        </mxCell>
        <mxCell id="Tv-2tQCTAZa6AO8zfYgc-146" value="" style="shape=waypoint;sketch=0;fillStyle=solid;size=6;pointerEvents=1;points=[];fillColor=none;resizable=0;rotatable=0;perimeter=centerPerimeter;snapToPoint=1;strokeColor=#99FF99;" vertex="1" parent="1">
          <mxGeometry x="321.71" y="380.59000000000003" width="20" height="20" as="geometry" />
        </mxCell>
        <mxCell id="Tv-2tQCTAZa6AO8zfYgc-147" value="" style="shape=waypoint;sketch=0;fillStyle=solid;size=6;pointerEvents=1;points=[];fillColor=none;resizable=0;rotatable=0;perimeter=centerPerimeter;snapToPoint=1;strokeColor=#99FF99;" vertex="1" parent="1">
          <mxGeometry x="336.46999999999997" y="380.59000000000003" width="20" height="20" as="geometry" />
        </mxCell>
        <mxCell id="Tv-2tQCTAZa6AO8zfYgc-148" value="" style="shape=waypoint;sketch=0;fillStyle=solid;size=6;pointerEvents=1;points=[];fillColor=none;resizable=0;rotatable=0;perimeter=centerPerimeter;snapToPoint=1;strokeColor=#99FF99;" vertex="1" parent="1">
          <mxGeometry x="351.29999999999995" y="380.59000000000003" width="20" height="20" as="geometry" />
        </mxCell>
        <mxCell id="Tv-2tQCTAZa6AO8zfYgc-149" value="" style="shape=waypoint;sketch=0;fillStyle=solid;size=6;pointerEvents=1;points=[];fillColor=none;resizable=0;rotatable=0;perimeter=centerPerimeter;snapToPoint=1;strokeColor=#99FF99;" vertex="1" parent="1">
          <mxGeometry x="277.99999999999994" y="380.07" width="20" height="20" as="geometry" />
        </mxCell>
        <mxCell id="Tv-2tQCTAZa6AO8zfYgc-150" value="" style="endArrow=none;html=1;rounded=0;" edge="1" parent="1">
          <mxGeometry width="50" height="50" relative="1" as="geometry">
            <mxPoint x="179.64" y="430" as="sourcePoint" />
            <mxPoint x="399.82" y="430.36" as="targetPoint" />
          </mxGeometry>
        </mxCell>
        <mxCell id="Tv-2tQCTAZa6AO8zfYgc-152" value="" style="shape=waypoint;sketch=0;fillStyle=solid;size=6;pointerEvents=1;points=[];fillColor=none;resizable=0;rotatable=0;perimeter=centerPerimeter;snapToPoint=1;strokeColor=#99FF99;" vertex="1" parent="1">
          <mxGeometry x="366.22999999999996" y="431.18" width="20" height="20" as="geometry" />
        </mxCell>
        <mxCell id="Tv-2tQCTAZa6AO8zfYgc-153" value="" style="shape=waypoint;sketch=0;fillStyle=solid;size=6;pointerEvents=1;points=[];fillColor=none;resizable=0;rotatable=0;perimeter=centerPerimeter;snapToPoint=1;" vertex="1" parent="1">
          <mxGeometry x="378.82" y="430.90000000000003" width="20" height="20" as="geometry" />
        </mxCell>
        <mxCell id="Tv-2tQCTAZa6AO8zfYgc-154" value="" style="shape=waypoint;sketch=0;fillStyle=solid;size=6;pointerEvents=1;points=[];fillColor=none;resizable=0;rotatable=0;perimeter=centerPerimeter;snapToPoint=1;strokeColor=#99FF99;" vertex="1" parent="1">
          <mxGeometry x="292.65" y="429.90000000000003" width="20" height="20" as="geometry" />
        </mxCell>
        <mxCell id="Tv-2tQCTAZa6AO8zfYgc-155" value="" style="shape=waypoint;sketch=0;fillStyle=solid;size=6;pointerEvents=1;points=[];fillColor=none;resizable=0;rotatable=0;perimeter=centerPerimeter;snapToPoint=1;strokeColor=#99FF99;" vertex="1" parent="1">
          <mxGeometry x="306.89" y="430.18" width="20" height="20" as="geometry" />
        </mxCell>
        <mxCell id="Tv-2tQCTAZa6AO8zfYgc-156" value="" style="shape=waypoint;sketch=0;fillStyle=solid;size=6;pointerEvents=1;points=[];fillColor=none;resizable=0;rotatable=0;perimeter=centerPerimeter;snapToPoint=1;strokeColor=#99FF99;" vertex="1" parent="1">
          <mxGeometry x="321.71" y="430.14000000000004" width="20" height="20" as="geometry" />
        </mxCell>
        <mxCell id="Tv-2tQCTAZa6AO8zfYgc-157" value="" style="shape=waypoint;sketch=0;fillStyle=solid;size=6;pointerEvents=1;points=[];fillColor=none;resizable=0;rotatable=0;perimeter=centerPerimeter;snapToPoint=1;strokeColor=#99FF99;" vertex="1" parent="1">
          <mxGeometry x="336.46999999999997" y="430.14000000000004" width="20" height="20" as="geometry" />
        </mxCell>
        <mxCell id="Tv-2tQCTAZa6AO8zfYgc-158" value="" style="shape=waypoint;sketch=0;fillStyle=solid;size=6;pointerEvents=1;points=[];fillColor=none;resizable=0;rotatable=0;perimeter=centerPerimeter;snapToPoint=1;strokeColor=#99FF99;" vertex="1" parent="1">
          <mxGeometry x="351.29999999999995" y="430.14000000000004" width="20" height="20" as="geometry" />
        </mxCell>
        <mxCell id="Tv-2tQCTAZa6AO8zfYgc-159" value="" style="shape=waypoint;sketch=0;fillStyle=solid;size=6;pointerEvents=1;points=[];fillColor=none;resizable=0;rotatable=0;perimeter=centerPerimeter;snapToPoint=1;strokeColor=#99FF99;" vertex="1" parent="1">
          <mxGeometry x="277.99999999999994" y="429.62" width="20" height="20" as="geometry" />
        </mxCell>
        <mxCell id="Tv-2tQCTAZa6AO8zfYgc-190" value="" style="shape=waypoint;sketch=0;fillStyle=solid;size=6;pointerEvents=1;points=[];fillColor=none;resizable=0;rotatable=0;perimeter=centerPerimeter;snapToPoint=1;" vertex="1" parent="1">
          <mxGeometry x="174.79999999999993" y="432.18" width="20" height="20" as="geometry" />
        </mxCell>
        <mxCell id="Tv-2tQCTAZa6AO8zfYgc-191" value="" style="shape=waypoint;sketch=0;fillStyle=solid;size=6;pointerEvents=1;points=[];fillColor=none;resizable=0;rotatable=0;perimeter=centerPerimeter;snapToPoint=1;strokeColor=#3333FF;" vertex="1" parent="1">
          <mxGeometry x="258.49999999999994" y="432.03000000000003" width="20" height="20" as="geometry" />
        </mxCell>
        <mxCell id="Tv-2tQCTAZa6AO8zfYgc-192" value="" style="shape=waypoint;sketch=0;fillStyle=solid;size=6;pointerEvents=1;points=[];fillColor=none;resizable=0;rotatable=0;perimeter=centerPerimeter;snapToPoint=1;strokeColor=#3333FF;" vertex="1" parent="1">
          <mxGeometry x="246.19999999999993" y="432.29999999999995" width="20" height="20" as="geometry" />
        </mxCell>
        <mxCell id="Tv-2tQCTAZa6AO8zfYgc-195" value="" style="shape=waypoint;sketch=0;fillStyle=solid;size=6;pointerEvents=1;points=[];fillColor=none;resizable=0;rotatable=0;perimeter=centerPerimeter;snapToPoint=1;strokeColor=#3333FF;" vertex="1" parent="1">
          <mxGeometry x="222.19999999999993" y="432.58" width="20" height="20" as="geometry" />
        </mxCell>
        <mxCell id="Tv-2tQCTAZa6AO8zfYgc-196" value="" style="shape=waypoint;sketch=0;fillStyle=solid;size=6;pointerEvents=1;points=[];fillColor=none;resizable=0;rotatable=0;perimeter=centerPerimeter;snapToPoint=1;strokeColor=#FF9999;" vertex="1" parent="1">
          <mxGeometry x="222.19999999999993" y="440.8" width="20" height="20" as="geometry" />
        </mxCell>
        <mxCell id="Tv-2tQCTAZa6AO8zfYgc-197" value="" style="shape=waypoint;sketch=0;fillStyle=solid;size=6;pointerEvents=1;points=[];fillColor=none;resizable=0;rotatable=0;perimeter=centerPerimeter;snapToPoint=1;strokeColor=#3333FF;" vertex="1" parent="1">
          <mxGeometry x="209.89999999999992" y="431.73999999999995" width="20" height="20" as="geometry" />
        </mxCell>
        <mxCell id="Tv-2tQCTAZa6AO8zfYgc-198" value="" style="shape=waypoint;sketch=0;fillStyle=solid;size=6;pointerEvents=1;points=[];fillColor=none;resizable=0;rotatable=0;perimeter=centerPerimeter;snapToPoint=1;strokeColor=#FF9999;" vertex="1" parent="1">
          <mxGeometry x="209.89999999999992" y="439.96" width="20" height="20" as="geometry" />
        </mxCell>
        <mxCell id="Tv-2tQCTAZa6AO8zfYgc-204" value="" style="shape=waypoint;sketch=0;fillStyle=solid;size=6;pointerEvents=1;points=[];fillColor=none;resizable=0;rotatable=0;perimeter=centerPerimeter;snapToPoint=1;strokeColor=#3333FF;" vertex="1" parent="1">
          <mxGeometry x="197.89999999999992" y="431.74" width="20" height="20" as="geometry" />
        </mxCell>
        <mxCell id="Tv-2tQCTAZa6AO8zfYgc-205" value="" style="shape=waypoint;sketch=0;fillStyle=solid;size=6;pointerEvents=1;points=[];fillColor=none;resizable=0;rotatable=0;perimeter=centerPerimeter;snapToPoint=1;strokeColor=#FF9999;" vertex="1" parent="1">
          <mxGeometry x="197.89999999999992" y="439.96000000000004" width="20" height="20" as="geometry" />
        </mxCell>
        <mxCell id="Tv-2tQCTAZa6AO8zfYgc-208" value="" style="shape=waypoint;sketch=0;fillStyle=solid;size=6;pointerEvents=1;points=[];fillColor=none;resizable=0;rotatable=0;perimeter=centerPerimeter;snapToPoint=1;strokeColor=#000000;" vertex="1" parent="1">
          <mxGeometry x="185.89999999999998" y="432.29999999999995" width="20" height="20" as="geometry" />
        </mxCell>
        <mxCell id="Tv-2tQCTAZa6AO8zfYgc-209" value="" style="shape=waypoint;sketch=0;fillStyle=solid;size=6;pointerEvents=1;points=[];fillColor=none;resizable=0;rotatable=0;perimeter=centerPerimeter;snapToPoint=1;strokeColor=#FF9999;" vertex="1" parent="1">
          <mxGeometry x="185.89999999999998" y="440.52" width="20" height="20" as="geometry" />
        </mxCell>
        <mxCell id="Tv-2tQCTAZa6AO8zfYgc-211" value="" style="shape=waypoint;sketch=0;fillStyle=solid;size=6;pointerEvents=1;points=[];fillColor=none;resizable=0;rotatable=0;perimeter=centerPerimeter;snapToPoint=1;strokeColor=#3333FF;" vertex="1" parent="1">
          <mxGeometry x="234.39999999999992" y="432.43999999999994" width="20" height="20" as="geometry" />
        </mxCell>
        <mxCell id="Tv-2tQCTAZa6AO8zfYgc-212" value="" style="shape=waypoint;sketch=0;fillStyle=solid;size=6;pointerEvents=1;points=[];fillColor=none;resizable=0;rotatable=0;perimeter=centerPerimeter;snapToPoint=1;strokeColor=#FF9999;" vertex="1" parent="1">
          <mxGeometry x="234.39999999999992" y="440.65999999999997" width="20" height="20" as="geometry" />
        </mxCell>
        <mxCell id="Tv-2tQCTAZa6AO8zfYgc-213" value="" style="shape=waypoint;sketch=0;fillStyle=solid;size=6;pointerEvents=1;points=[];fillColor=none;resizable=0;rotatable=0;perimeter=centerPerimeter;snapToPoint=1;strokeColor=#FF9999;" vertex="1" parent="1">
          <mxGeometry x="234.39999999999992" y="448.59999999999997" width="20" height="20" as="geometry" />
        </mxCell>
        <mxCell id="Tv-2tQCTAZa6AO8zfYgc-214" value="" style="shape=waypoint;sketch=0;fillStyle=solid;size=6;pointerEvents=1;points=[];fillColor=none;resizable=0;rotatable=0;perimeter=centerPerimeter;snapToPoint=1;strokeColor=#FF9999;" vertex="1" parent="1">
          <mxGeometry x="174.79999999999998" y="440.96" width="20" height="20" as="geometry" />
        </mxCell>
        <mxCell id="Tv-2tQCTAZa6AO8zfYgc-215" value="" style="shape=curlyBracket;whiteSpace=wrap;html=1;rounded=1;labelPosition=left;verticalLabelPosition=middle;align=right;verticalAlign=middle;rotation=-90;" vertex="1" parent="1">
          <mxGeometry x="215.23" y="439.87" width="20" height="101.74" as="geometry" />
        </mxCell>
        <mxCell id="Tv-2tQCTAZa6AO8zfYgc-216" value="" style="shape=curlyBracket;whiteSpace=wrap;html=1;rounded=1;labelPosition=left;verticalLabelPosition=middle;align=right;verticalAlign=middle;rotation=-90;size=0.5;" vertex="1" parent="1">
          <mxGeometry x="329.92" y="435.81" width="20" height="110.04" as="geometry" />
        </mxCell>
        <mxCell id="Tv-2tQCTAZa6AO8zfYgc-217" value="&lt;font style=&quot;font-size: 7px;&quot;&gt;Accurate Block&lt;/font&gt;" style="text;html=1;align=center;verticalAlign=middle;resizable=0;points=[];autosize=1;strokeColor=none;fillColor=none;" vertex="1" parent="1">
          <mxGeometry x="190.23" y="490" width="70" height="30" as="geometry" />
        </mxCell>
        <mxCell id="Tv-2tQCTAZa6AO8zfYgc-218" value="&lt;font style=&quot;font-size: 7px;&quot;&gt;Inaccurate Block&lt;/font&gt;" style="text;html=1;align=center;verticalAlign=middle;resizable=0;points=[];autosize=1;strokeColor=none;fillColor=none;" vertex="1" parent="1">
          <mxGeometry x="299.91999999999996" y="490" width="80" height="30" as="geometry" />
        </mxCell>
        <mxCell id="Tv-2tQCTAZa6AO8zfYgc-219" value="" style="shape=waypoint;sketch=0;fillStyle=solid;size=6;pointerEvents=1;points=[];fillColor=none;resizable=0;rotatable=0;perimeter=centerPerimeter;snapToPoint=1;" vertex="1" parent="1">
          <mxGeometry x="470" y="190" width="20" height="20" as="geometry" />
        </mxCell>
        <mxCell id="Tv-2tQCTAZa6AO8zfYgc-220" value="" style="shape=waypoint;sketch=0;fillStyle=solid;size=6;pointerEvents=1;points=[];fillColor=none;resizable=0;rotatable=0;perimeter=centerPerimeter;snapToPoint=1;strokeColor=#3333FF;" vertex="1" parent="1">
          <mxGeometry x="470" y="200.07" width="20" height="20" as="geometry" />
        </mxCell>
        <mxCell id="Tv-2tQCTAZa6AO8zfYgc-221" value="" style="shape=waypoint;sketch=0;fillStyle=solid;size=6;pointerEvents=1;points=[];fillColor=none;resizable=0;rotatable=0;perimeter=centerPerimeter;snapToPoint=1;strokeColor=#FF9999;" vertex="1" parent="1">
          <mxGeometry x="470" y="209.66" width="20" height="20" as="geometry" />
        </mxCell>
        <mxCell id="Tv-2tQCTAZa6AO8zfYgc-222" value="" style="shape=waypoint;sketch=0;fillStyle=solid;size=6;pointerEvents=1;points=[];fillColor=none;resizable=0;rotatable=0;perimeter=centerPerimeter;snapToPoint=1;strokeColor=#99FF99;" vertex="1" parent="1">
          <mxGeometry x="470" y="219.73" width="20" height="20" as="geometry" />
        </mxCell>
        <mxCell id="Tv-2tQCTAZa6AO8zfYgc-225" value="&lt;font style=&quot;font-size: 7px;&quot;&gt;Partial Product&lt;/font&gt;" style="text;html=1;align=center;verticalAlign=middle;resizable=0;points=[];autosize=1;strokeColor=none;fillColor=none;" vertex="1" parent="1">
          <mxGeometry x="473" y="182.94" width="70" height="30" as="geometry" />
        </mxCell>
        <mxCell id="Tv-2tQCTAZa6AO8zfYgc-226" value="&lt;font color=&quot;#3333ff&quot; style=&quot;font-size: 7px;&quot;&gt;Sum&lt;/font&gt;" style="text;html=1;align=center;verticalAlign=middle;resizable=0;points=[];autosize=1;strokeColor=none;fillColor=none;" vertex="1" parent="1">
          <mxGeometry x="472" y="193" width="40" height="30" as="geometry" />
        </mxCell>
        <mxCell id="Tv-2tQCTAZa6AO8zfYgc-227" value="&lt;font color=&quot;#ff9999&quot; style=&quot;font-size: 7px;&quot;&gt;Carry&lt;/font&gt;" style="text;html=1;align=center;verticalAlign=middle;resizable=0;points=[];autosize=1;strokeColor=none;fillColor=none;" vertex="1" parent="1">
          <mxGeometry x="474" y="202.54" width="40" height="30" as="geometry" />
        </mxCell>
        <mxCell id="Tv-2tQCTAZa6AO8zfYgc-228" value="&lt;font color=&quot;#99ff99&quot; style=&quot;font-size: 7px;&quot;&gt;OR Gate Output&lt;/font&gt;" style="text;html=1;align=center;verticalAlign=middle;resizable=0;points=[];autosize=1;strokeColor=none;fillColor=none;" vertex="1" parent="1">
          <mxGeometry x="476" y="212.94" width="70" height="30" as="geometry" />
        </mxCell>
        <mxCell id="Tv-2tQCTAZa6AO8zfYgc-229" value="" style="shape=hexagon;perimeter=hexagonPerimeter2;whiteSpace=wrap;html=1;fixedSize=1;rotation=90;size=7.180000000000064;strokeColor=#99FF99;" vertex="1" parent="1">
          <mxGeometry x="465.47" y="249.79999999999998" width="29.06" height="10" as="geometry" />
        </mxCell>
        <mxCell id="Tv-2tQCTAZa6AO8zfYgc-230" value="" style="rounded=0;whiteSpace=wrap;html=1;strokeColor=#FF9999;" vertex="1" parent="1">
          <mxGeometry x="475.00000000000006" y="272.81" width="10" height="30.11" as="geometry" />
        </mxCell>
        <mxCell id="Tv-2tQCTAZa6AO8zfYgc-231" value="" style="ellipse;whiteSpace=wrap;html=1;rotation=90;strokeColor=#FF9999;" vertex="1" parent="1">
          <mxGeometry x="225.2" y="249.67999999999998" width="20" height="10" as="geometry" />
        </mxCell>
        <mxCell id="Tv-2tQCTAZa6AO8zfYgc-234" value="" style="shape=waypoint;sketch=0;fillStyle=solid;size=6;pointerEvents=1;points=[];fillColor=none;resizable=0;rotatable=0;perimeter=centerPerimeter;snapToPoint=1;" vertex="1" parent="1">
          <mxGeometry x="225.19999999999996" y="240.57" width="20" height="20" as="geometry" />
        </mxCell>
        <mxCell id="Tv-2tQCTAZa6AO8zfYgc-235" value="" style="shape=waypoint;sketch=0;fillStyle=solid;size=6;pointerEvents=1;points=[];fillColor=none;resizable=0;rotatable=0;perimeter=centerPerimeter;snapToPoint=1;" vertex="1" parent="1">
          <mxGeometry x="225.19999999999996" y="248.79000000000002" width="20" height="20" as="geometry" />
        </mxCell>
        <mxCell id="Tv-2tQCTAZa6AO8zfYgc-239" value="" style="ellipse;whiteSpace=wrap;html=1;rotation=90;strokeColor=#FF9999;" vertex="1" parent="1">
          <mxGeometry x="262.36" y="283.68999999999994" width="20" height="10" as="geometry" />
        </mxCell>
        <mxCell id="Tv-2tQCTAZa6AO8zfYgc-240" value="" style="shape=waypoint;sketch=0;fillStyle=solid;size=6;pointerEvents=1;points=[];fillColor=none;resizable=0;rotatable=0;perimeter=centerPerimeter;snapToPoint=1;" vertex="1" parent="1">
          <mxGeometry x="262.35999999999996" y="274.58" width="20" height="20" as="geometry" />
        </mxCell>
        <mxCell id="Tv-2tQCTAZa6AO8zfYgc-241" value="" style="shape=waypoint;sketch=0;fillStyle=solid;size=6;pointerEvents=1;points=[];fillColor=none;resizable=0;rotatable=0;perimeter=centerPerimeter;snapToPoint=1;" vertex="1" parent="1">
          <mxGeometry x="262.35999999999996" y="282.8" width="20" height="20" as="geometry" />
        </mxCell>
        <mxCell id="Tv-2tQCTAZa6AO8zfYgc-243" value="" style="ellipse;whiteSpace=wrap;html=1;rotation=90;strokeColor=#FF9999;" vertex="1" parent="1">
          <mxGeometry x="470" y="311.14" width="20" height="10" as="geometry" />
        </mxCell>
        <mxCell id="Tv-2tQCTAZa6AO8zfYgc-246" value="&lt;font color=&quot;#99ff99&quot; style=&quot;font-size: 7px;&quot;&gt;OR Gate&lt;/font&gt;" style="text;html=1;align=center;verticalAlign=middle;resizable=0;points=[];autosize=1;strokeColor=none;fillColor=none;" vertex="1" parent="1">
          <mxGeometry x="476" y="237" width="50" height="30" as="geometry" />
        </mxCell>
        <mxCell id="Tv-2tQCTAZa6AO8zfYgc-247" value="&lt;font color=&quot;#ff9999&quot; style=&quot;font-size: 7px;&quot;&gt;Full Adder&lt;/font&gt;" style="text;html=1;align=center;verticalAlign=middle;resizable=0;points=[];autosize=1;strokeColor=none;fillColor=none;" vertex="1" parent="1">
          <mxGeometry x="473" y="273.2" width="60" height="30" as="geometry" />
        </mxCell>
        <mxCell id="Tv-2tQCTAZa6AO8zfYgc-248" value="&lt;font color=&quot;#ff9999&quot; style=&quot;font-size: 7px;&quot;&gt;Half Adder&lt;/font&gt;" style="text;html=1;align=center;verticalAlign=middle;resizable=0;points=[];autosize=1;strokeColor=none;fillColor=none;" vertex="1" parent="1">
          <mxGeometry x="474" y="300.43" width="60" height="30" as="geometry" />
        </mxCell>
      </root>
    </mxGraphModel>
  </diagram>
</mxfile>
